<mxfile host="app.diagrams.net" modified="2024-06-28T22:43:16.450Z" agent="Mozilla/5.0 (Windows NT 10.0; Win64; x64) AppleWebKit/537.36 (KHTML, like Gecko) Chrome/126.0.0.0 Safari/537.36" etag="Lf9L4zkPw4yyG0jdij8l" version="24.6.4" type="device">
  <diagram name="Page-1" id="ZzTOxz-yMW-hixBRQbKg">
    <mxGraphModel dx="794" dy="420" grid="1" gridSize="10" guides="1" tooltips="1" connect="1" arrows="1" fold="1" page="1" pageScale="1" pageWidth="850" pageHeight="1100" math="0" shadow="0">
      <root>
        <mxCell id="0" />
        <mxCell id="1" parent="0" />
        <mxCell id="lHKKG2NBQ9EoUT2bQIe2-73" value="z" style="edgeStyle=orthogonalEdgeStyle;rounded=0;orthogonalLoop=1;jettySize=auto;html=1;exitX=1;exitY=1;exitDx=0;exitDy=0;" edge="1" parent="1" source="2">
          <mxGeometry relative="1" as="geometry">
            <mxPoint x="150" y="151" as="targetPoint" />
          </mxGeometry>
        </mxCell>
        <mxCell id="2" value="CUSTOMER" style="shape=table;startSize=25;container=1;collapsible=0;childLayout=tableLayout;fixedRows=1;rowLines=1;fontStyle=1;align=center;resizeLast=1;" parent="1" vertex="1">
          <mxGeometry x="34" y="20" width="115" height="130" as="geometry" />
        </mxCell>
        <mxCell id="3" style="shape=tableRow;horizontal=0;startSize=0;swimlaneHead=0;swimlaneBody=0;fillColor=none;collapsible=0;dropTarget=0;points=[[0,0.5],[1,0.5]];portConstraint=eastwest;top=0;left=0;right=0;bottom=0;" parent="2" vertex="1">
          <mxGeometry y="25" width="115" height="21" as="geometry" />
        </mxCell>
        <mxCell id="4" value="Int" style="shape=partialRectangle;connectable=0;fillColor=none;top=0;left=0;bottom=0;right=0;align=left;spacingLeft=2;overflow=hidden;fontSize=11;" parent="3" vertex="1">
          <mxGeometry width="36" height="21" as="geometry">
            <mxRectangle width="36" height="21" as="alternateBounds" />
          </mxGeometry>
        </mxCell>
        <mxCell id="5" value="customer_id" style="shape=partialRectangle;connectable=0;fillColor=none;top=0;left=0;bottom=0;right=0;align=left;spacingLeft=2;overflow=hidden;fontSize=11;" parent="3" vertex="1">
          <mxGeometry x="36" width="79" height="21" as="geometry">
            <mxRectangle width="79" height="21" as="alternateBounds" />
          </mxGeometry>
        </mxCell>
        <mxCell id="6" style="shape=tableRow;horizontal=0;startSize=0;swimlaneHead=0;swimlaneBody=0;fillColor=none;collapsible=0;dropTarget=0;points=[[0,0.5],[1,0.5]];portConstraint=eastwest;top=0;left=0;right=0;bottom=0;" parent="2" vertex="1">
          <mxGeometry y="46" width="115" height="20" as="geometry" />
        </mxCell>
        <mxCell id="7" value="string" style="shape=partialRectangle;connectable=0;fillColor=none;top=0;left=0;bottom=0;right=0;align=left;spacingLeft=2;overflow=hidden;fontSize=11;" parent="6" vertex="1">
          <mxGeometry width="36" height="20" as="geometry">
            <mxRectangle width="36" height="20" as="alternateBounds" />
          </mxGeometry>
        </mxCell>
        <mxCell id="8" value="fullname" style="shape=partialRectangle;connectable=0;fillColor=none;top=0;left=0;bottom=0;right=0;align=left;spacingLeft=2;overflow=hidden;fontSize=11;" parent="6" vertex="1">
          <mxGeometry x="36" width="79" height="20" as="geometry">
            <mxRectangle width="79" height="20" as="alternateBounds" />
          </mxGeometry>
        </mxCell>
        <mxCell id="9" style="shape=tableRow;horizontal=0;startSize=0;swimlaneHead=0;swimlaneBody=0;fillColor=none;collapsible=0;dropTarget=0;points=[[0,0.5],[1,0.5]];portConstraint=eastwest;top=0;left=0;right=0;bottom=0;" parent="2" vertex="1">
          <mxGeometry y="66" width="115" height="21" as="geometry" />
        </mxCell>
        <mxCell id="10" value="string" style="shape=partialRectangle;connectable=0;fillColor=none;top=0;left=0;bottom=0;right=0;align=left;spacingLeft=2;overflow=hidden;fontSize=11;" parent="9" vertex="1">
          <mxGeometry width="36" height="21" as="geometry">
            <mxRectangle width="36" height="21" as="alternateBounds" />
          </mxGeometry>
        </mxCell>
        <mxCell id="11" value="email" style="shape=partialRectangle;connectable=0;fillColor=none;top=0;left=0;bottom=0;right=0;align=left;spacingLeft=2;overflow=hidden;fontSize=11;" parent="9" vertex="1">
          <mxGeometry x="36" width="79" height="21" as="geometry">
            <mxRectangle width="79" height="21" as="alternateBounds" />
          </mxGeometry>
        </mxCell>
        <mxCell id="12" style="shape=tableRow;horizontal=0;startSize=0;swimlaneHead=0;swimlaneBody=0;fillColor=none;collapsible=0;dropTarget=0;points=[[0,0.5],[1,0.5]];portConstraint=eastwest;top=0;left=0;right=0;bottom=0;" parent="2" vertex="1">
          <mxGeometry y="87" width="115" height="21" as="geometry" />
        </mxCell>
        <mxCell id="13" value="int" style="shape=partialRectangle;connectable=0;fillColor=none;top=0;left=0;bottom=0;right=0;align=left;spacingLeft=2;overflow=hidden;fontSize=11;" parent="12" vertex="1">
          <mxGeometry width="36" height="21" as="geometry">
            <mxRectangle width="36" height="21" as="alternateBounds" />
          </mxGeometry>
        </mxCell>
        <mxCell id="14" value="phone" style="shape=partialRectangle;connectable=0;fillColor=none;top=0;left=0;bottom=0;right=0;align=left;spacingLeft=2;overflow=hidden;fontSize=11;" parent="12" vertex="1">
          <mxGeometry x="36" width="79" height="21" as="geometry">
            <mxRectangle width="79" height="21" as="alternateBounds" />
          </mxGeometry>
        </mxCell>
        <mxCell id="15" style="shape=tableRow;horizontal=0;startSize=0;swimlaneHead=0;swimlaneBody=0;fillColor=none;collapsible=0;dropTarget=0;points=[[0,0.5],[1,0.5]];portConstraint=eastwest;top=0;left=0;right=0;bottom=0;" parent="2" vertex="1">
          <mxGeometry y="108" width="115" height="21" as="geometry" />
        </mxCell>
        <mxCell id="16" value="string" style="shape=partialRectangle;connectable=0;fillColor=none;top=0;left=0;bottom=0;right=0;align=left;spacingLeft=2;overflow=hidden;fontSize=11;" parent="15" vertex="1">
          <mxGeometry width="36" height="21" as="geometry">
            <mxRectangle width="36" height="21" as="alternateBounds" />
          </mxGeometry>
        </mxCell>
        <mxCell id="17" value="password" style="shape=partialRectangle;connectable=0;fillColor=none;top=0;left=0;bottom=0;right=0;align=left;spacingLeft=2;overflow=hidden;fontSize=11;" parent="15" vertex="1">
          <mxGeometry x="36" width="79" height="21" as="geometry">
            <mxRectangle width="79" height="21" as="alternateBounds" />
          </mxGeometry>
        </mxCell>
        <mxCell id="18" value="ORDER" style="shape=table;startSize=25;container=1;collapsible=0;childLayout=tableLayout;fixedRows=1;rowLines=1;fontStyle=1;align=center;resizeLast=1;" parent="1" vertex="1">
          <mxGeometry x="20" y="251" width="148" height="131" as="geometry" />
        </mxCell>
        <mxCell id="19" style="shape=tableRow;horizontal=0;startSize=0;swimlaneHead=0;swimlaneBody=0;fillColor=none;collapsible=0;dropTarget=0;points=[[0,0.5],[1,0.5]];portConstraint=eastwest;top=0;left=0;right=0;bottom=0;" parent="18" vertex="1">
          <mxGeometry y="25" width="148" height="21" as="geometry" />
        </mxCell>
        <mxCell id="20" value="int" style="shape=partialRectangle;connectable=0;fillColor=none;top=0;left=0;bottom=0;right=0;align=left;spacingLeft=2;overflow=hidden;fontSize=11;" parent="19" vertex="1">
          <mxGeometry width="48" height="21" as="geometry">
            <mxRectangle width="48" height="21" as="alternateBounds" />
          </mxGeometry>
        </mxCell>
        <mxCell id="21" value="order_id" style="shape=partialRectangle;connectable=0;fillColor=none;top=0;left=0;bottom=0;right=0;align=left;spacingLeft=2;overflow=hidden;fontSize=11;" parent="19" vertex="1">
          <mxGeometry x="48" width="100" height="21" as="geometry">
            <mxRectangle width="100" height="21" as="alternateBounds" />
          </mxGeometry>
        </mxCell>
        <mxCell id="22" style="shape=tableRow;horizontal=0;startSize=0;swimlaneHead=0;swimlaneBody=0;fillColor=none;collapsible=0;dropTarget=0;points=[[0,0.5],[1,0.5]];portConstraint=eastwest;top=0;left=0;right=0;bottom=0;" parent="18" vertex="1">
          <mxGeometry y="46" width="148" height="21" as="geometry" />
        </mxCell>
        <mxCell id="23" value="int" style="shape=partialRectangle;connectable=0;fillColor=none;top=0;left=0;bottom=0;right=0;align=left;spacingLeft=2;overflow=hidden;fontSize=11;" parent="22" vertex="1">
          <mxGeometry width="48" height="21" as="geometry">
            <mxRectangle width="48" height="21" as="alternateBounds" />
          </mxGeometry>
        </mxCell>
        <mxCell id="24" value="customer_id" style="shape=partialRectangle;connectable=0;fillColor=none;top=0;left=0;bottom=0;right=0;align=left;spacingLeft=2;overflow=hidden;fontSize=11;" parent="22" vertex="1">
          <mxGeometry x="48" width="100" height="21" as="geometry">
            <mxRectangle width="100" height="21" as="alternateBounds" />
          </mxGeometry>
        </mxCell>
        <mxCell id="25" style="shape=tableRow;horizontal=0;startSize=0;swimlaneHead=0;swimlaneBody=0;fillColor=none;collapsible=0;dropTarget=0;points=[[0,0.5],[1,0.5]];portConstraint=eastwest;top=0;left=0;right=0;bottom=0;" parent="18" vertex="1">
          <mxGeometry y="67" width="148" height="21" as="geometry" />
        </mxCell>
        <mxCell id="26" value="datetime" style="shape=partialRectangle;connectable=0;fillColor=none;top=0;left=0;bottom=0;right=0;align=left;spacingLeft=2;overflow=hidden;fontSize=11;" parent="25" vertex="1">
          <mxGeometry width="48" height="21" as="geometry">
            <mxRectangle width="48" height="21" as="alternateBounds" />
          </mxGeometry>
        </mxCell>
        <mxCell id="27" value="order_date" style="shape=partialRectangle;connectable=0;fillColor=none;top=0;left=0;bottom=0;right=0;align=left;spacingLeft=2;overflow=hidden;fontSize=11;" parent="25" vertex="1">
          <mxGeometry x="48" width="100" height="21" as="geometry">
            <mxRectangle width="100" height="21" as="alternateBounds" />
          </mxGeometry>
        </mxCell>
        <mxCell id="28" style="shape=tableRow;horizontal=0;startSize=0;swimlaneHead=0;swimlaneBody=0;fillColor=none;collapsible=0;dropTarget=0;points=[[0,0.5],[1,0.5]];portConstraint=eastwest;top=0;left=0;right=0;bottom=0;" parent="18" vertex="1">
          <mxGeometry y="88" width="148" height="21" as="geometry" />
        </mxCell>
        <mxCell id="29" value="enum" style="shape=partialRectangle;connectable=0;fillColor=none;top=0;left=0;bottom=0;right=0;align=left;spacingLeft=2;overflow=hidden;fontSize=11;" parent="28" vertex="1">
          <mxGeometry width="48" height="21" as="geometry">
            <mxRectangle width="48" height="21" as="alternateBounds" />
          </mxGeometry>
        </mxCell>
        <mxCell id="30" value="status" style="shape=partialRectangle;connectable=0;fillColor=none;top=0;left=0;bottom=0;right=0;align=left;spacingLeft=2;overflow=hidden;fontSize=11;" parent="28" vertex="1">
          <mxGeometry x="48" width="100" height="21" as="geometry">
            <mxRectangle width="100" height="21" as="alternateBounds" />
          </mxGeometry>
        </mxCell>
        <mxCell id="31" style="shape=tableRow;horizontal=0;startSize=0;swimlaneHead=0;swimlaneBody=0;fillColor=none;collapsible=0;dropTarget=0;points=[[0,0.5],[1,0.5]];portConstraint=eastwest;top=0;left=0;right=0;bottom=0;" parent="18" vertex="1">
          <mxGeometry y="109" width="148" height="21" as="geometry" />
        </mxCell>
        <mxCell id="32" value="string" style="shape=partialRectangle;connectable=0;fillColor=none;top=0;left=0;bottom=0;right=0;align=left;spacingLeft=2;overflow=hidden;fontSize=11;" parent="31" vertex="1">
          <mxGeometry width="48" height="21" as="geometry">
            <mxRectangle width="48" height="21" as="alternateBounds" />
          </mxGeometry>
        </mxCell>
        <mxCell id="33" value="payment_method" style="shape=partialRectangle;connectable=0;fillColor=none;top=0;left=0;bottom=0;right=0;align=left;spacingLeft=2;overflow=hidden;fontSize=11;" parent="31" vertex="1">
          <mxGeometry x="48" width="100" height="21" as="geometry">
            <mxRectangle width="100" height="21" as="alternateBounds" />
          </mxGeometry>
        </mxCell>
        <mxCell id="34" value="PRODUCT" style="shape=table;startSize=25;container=1;collapsible=0;childLayout=tableLayout;fixedRows=1;rowLines=1;fontStyle=1;align=center;resizeLast=1;" parent="1" vertex="1">
          <mxGeometry x="301" y="251" width="151" height="131" as="geometry" />
        </mxCell>
        <mxCell id="35" style="shape=tableRow;horizontal=0;startSize=0;swimlaneHead=0;swimlaneBody=0;fillColor=none;collapsible=0;dropTarget=0;points=[[0,0.5],[1,0.5]];portConstraint=eastwest;top=0;left=0;right=0;bottom=0;" parent="34" vertex="1">
          <mxGeometry y="25" width="151" height="21" as="geometry" />
        </mxCell>
        <mxCell id="36" value="int" style="shape=partialRectangle;connectable=0;fillColor=none;top=0;left=0;bottom=0;right=0;align=left;spacingLeft=2;overflow=hidden;fontSize=11;" parent="35" vertex="1">
          <mxGeometry width="42" height="21" as="geometry">
            <mxRectangle width="42" height="21" as="alternateBounds" />
          </mxGeometry>
        </mxCell>
        <mxCell id="37" value="product_id" style="shape=partialRectangle;connectable=0;fillColor=none;top=0;left=0;bottom=0;right=0;align=left;spacingLeft=2;overflow=hidden;fontSize=11;" parent="35" vertex="1">
          <mxGeometry x="42" width="109" height="21" as="geometry">
            <mxRectangle width="109" height="21" as="alternateBounds" />
          </mxGeometry>
        </mxCell>
        <mxCell id="38" style="shape=tableRow;horizontal=0;startSize=0;swimlaneHead=0;swimlaneBody=0;fillColor=none;collapsible=0;dropTarget=0;points=[[0,0.5],[1,0.5]];portConstraint=eastwest;top=0;left=0;right=0;bottom=0;" parent="34" vertex="1">
          <mxGeometry y="46" width="151" height="21" as="geometry" />
        </mxCell>
        <mxCell id="39" value="string" style="shape=partialRectangle;connectable=0;fillColor=none;top=0;left=0;bottom=0;right=0;align=left;spacingLeft=2;overflow=hidden;fontSize=11;" parent="38" vertex="1">
          <mxGeometry width="42" height="21" as="geometry">
            <mxRectangle width="42" height="21" as="alternateBounds" />
          </mxGeometry>
        </mxCell>
        <mxCell id="40" value="name" style="shape=partialRectangle;connectable=0;fillColor=none;top=0;left=0;bottom=0;right=0;align=left;spacingLeft=2;overflow=hidden;fontSize=11;" parent="38" vertex="1">
          <mxGeometry x="42" width="109" height="21" as="geometry">
            <mxRectangle width="109" height="21" as="alternateBounds" />
          </mxGeometry>
        </mxCell>
        <mxCell id="41" style="shape=tableRow;horizontal=0;startSize=0;swimlaneHead=0;swimlaneBody=0;fillColor=none;collapsible=0;dropTarget=0;points=[[0,0.5],[1,0.5]];portConstraint=eastwest;top=0;left=0;right=0;bottom=0;" parent="34" vertex="1">
          <mxGeometry y="67" width="151" height="21" as="geometry" />
        </mxCell>
        <mxCell id="42" value="string" style="shape=partialRectangle;connectable=0;fillColor=none;top=0;left=0;bottom=0;right=0;align=left;spacingLeft=2;overflow=hidden;fontSize=11;" parent="41" vertex="1">
          <mxGeometry width="42" height="21" as="geometry">
            <mxRectangle width="42" height="21" as="alternateBounds" />
          </mxGeometry>
        </mxCell>
        <mxCell id="43" value="category" style="shape=partialRectangle;connectable=0;fillColor=none;top=0;left=0;bottom=0;right=0;align=left;spacingLeft=2;overflow=hidden;fontSize=11;" parent="41" vertex="1">
          <mxGeometry x="42" width="109" height="21" as="geometry">
            <mxRectangle width="109" height="21" as="alternateBounds" />
          </mxGeometry>
        </mxCell>
        <mxCell id="44" style="shape=tableRow;horizontal=0;startSize=0;swimlaneHead=0;swimlaneBody=0;fillColor=none;collapsible=0;dropTarget=0;points=[[0,0.5],[1,0.5]];portConstraint=eastwest;top=0;left=0;right=0;bottom=0;" parent="34" vertex="1">
          <mxGeometry y="88" width="151" height="21" as="geometry" />
        </mxCell>
        <mxCell id="45" value="decimal" style="shape=partialRectangle;connectable=0;fillColor=none;top=0;left=0;bottom=0;right=0;align=left;spacingLeft=2;overflow=hidden;fontSize=11;" parent="44" vertex="1">
          <mxGeometry width="42" height="21" as="geometry">
            <mxRectangle width="42" height="21" as="alternateBounds" />
          </mxGeometry>
        </mxCell>
        <mxCell id="46" value="price" style="shape=partialRectangle;connectable=0;fillColor=none;top=0;left=0;bottom=0;right=0;align=left;spacingLeft=2;overflow=hidden;fontSize=11;" parent="44" vertex="1">
          <mxGeometry x="42" width="109" height="21" as="geometry">
            <mxRectangle width="109" height="21" as="alternateBounds" />
          </mxGeometry>
        </mxCell>
        <mxCell id="47" style="shape=tableRow;horizontal=0;startSize=0;swimlaneHead=0;swimlaneBody=0;fillColor=none;collapsible=0;dropTarget=0;points=[[0,0.5],[1,0.5]];portConstraint=eastwest;top=0;left=0;right=0;bottom=0;" parent="34" vertex="1">
          <mxGeometry y="109" width="151" height="21" as="geometry" />
        </mxCell>
        <mxCell id="48" value="int" style="shape=partialRectangle;connectable=0;fillColor=none;top=0;left=0;bottom=0;right=0;align=left;spacingLeft=2;overflow=hidden;fontSize=11;" parent="47" vertex="1">
          <mxGeometry width="42" height="21" as="geometry">
            <mxRectangle width="42" height="21" as="alternateBounds" />
          </mxGeometry>
        </mxCell>
        <mxCell id="49" value="quantity_in_stock" style="shape=partialRectangle;connectable=0;fillColor=none;top=0;left=0;bottom=0;right=0;align=left;spacingLeft=2;overflow=hidden;fontSize=11;" parent="47" vertex="1">
          <mxGeometry x="42" width="109" height="21" as="geometry">
            <mxRectangle width="109" height="21" as="alternateBounds" />
          </mxGeometry>
        </mxCell>
        <mxCell id="50" value="ORDER_ITEM" style="shape=table;startSize=25;container=1;collapsible=0;childLayout=tableLayout;fixedRows=1;rowLines=1;fontStyle=1;align=center;resizeLast=1;" parent="1" vertex="1">
          <mxGeometry x="87" y="481" width="115" height="109" as="geometry" />
        </mxCell>
        <mxCell id="51" style="shape=tableRow;horizontal=0;startSize=0;swimlaneHead=0;swimlaneBody=0;fillColor=none;collapsible=0;dropTarget=0;points=[[0,0.5],[1,0.5]];portConstraint=eastwest;top=0;left=0;right=0;bottom=0;" parent="50" vertex="1">
          <mxGeometry y="25" width="115" height="21" as="geometry" />
        </mxCell>
        <mxCell id="52" value="int" style="shape=partialRectangle;connectable=0;fillColor=none;top=0;left=0;bottom=0;right=0;align=left;spacingLeft=2;overflow=hidden;fontSize=11;" parent="51" vertex="1">
          <mxGeometry width="42" height="21" as="geometry">
            <mxRectangle width="42" height="21" as="alternateBounds" />
          </mxGeometry>
        </mxCell>
        <mxCell id="53" value="order_id" style="shape=partialRectangle;connectable=0;fillColor=none;top=0;left=0;bottom=0;right=0;align=left;spacingLeft=2;overflow=hidden;fontSize=11;" parent="51" vertex="1">
          <mxGeometry x="42" width="73" height="21" as="geometry">
            <mxRectangle width="73" height="21" as="alternateBounds" />
          </mxGeometry>
        </mxCell>
        <mxCell id="54" style="shape=tableRow;horizontal=0;startSize=0;swimlaneHead=0;swimlaneBody=0;fillColor=none;collapsible=0;dropTarget=0;points=[[0,0.5],[1,0.5]];portConstraint=eastwest;top=0;left=0;right=0;bottom=0;" parent="50" vertex="1">
          <mxGeometry y="46" width="115" height="21" as="geometry" />
        </mxCell>
        <mxCell id="55" value="int" style="shape=partialRectangle;connectable=0;fillColor=none;top=0;left=0;bottom=0;right=0;align=left;spacingLeft=2;overflow=hidden;fontSize=11;" parent="54" vertex="1">
          <mxGeometry width="42" height="21" as="geometry">
            <mxRectangle width="42" height="21" as="alternateBounds" />
          </mxGeometry>
        </mxCell>
        <mxCell id="56" value="product_id" style="shape=partialRectangle;connectable=0;fillColor=none;top=0;left=0;bottom=0;right=0;align=left;spacingLeft=2;overflow=hidden;fontSize=11;" parent="54" vertex="1">
          <mxGeometry x="42" width="73" height="21" as="geometry">
            <mxRectangle width="73" height="21" as="alternateBounds" />
          </mxGeometry>
        </mxCell>
        <mxCell id="57" style="shape=tableRow;horizontal=0;startSize=0;swimlaneHead=0;swimlaneBody=0;fillColor=none;collapsible=0;dropTarget=0;points=[[0,0.5],[1,0.5]];portConstraint=eastwest;top=0;left=0;right=0;bottom=0;" parent="50" vertex="1">
          <mxGeometry y="67" width="115" height="21" as="geometry" />
        </mxCell>
        <mxCell id="58" value="int" style="shape=partialRectangle;connectable=0;fillColor=none;top=0;left=0;bottom=0;right=0;align=left;spacingLeft=2;overflow=hidden;fontSize=11;" parent="57" vertex="1">
          <mxGeometry width="42" height="21" as="geometry">
            <mxRectangle width="42" height="21" as="alternateBounds" />
          </mxGeometry>
        </mxCell>
        <mxCell id="59" value="quantity" style="shape=partialRectangle;connectable=0;fillColor=none;top=0;left=0;bottom=0;right=0;align=left;spacingLeft=2;overflow=hidden;fontSize=11;" parent="57" vertex="1">
          <mxGeometry x="42" width="73" height="21" as="geometry">
            <mxRectangle width="73" height="21" as="alternateBounds" />
          </mxGeometry>
        </mxCell>
        <mxCell id="60" style="shape=tableRow;horizontal=0;startSize=0;swimlaneHead=0;swimlaneBody=0;fillColor=none;collapsible=0;dropTarget=0;points=[[0,0.5],[1,0.5]];portConstraint=eastwest;top=0;left=0;right=0;bottom=0;" parent="50" vertex="1">
          <mxGeometry y="88" width="115" height="21" as="geometry" />
        </mxCell>
        <mxCell id="61" value="decimal" style="shape=partialRectangle;connectable=0;fillColor=none;top=0;left=0;bottom=0;right=0;align=left;spacingLeft=2;overflow=hidden;fontSize=11;" parent="60" vertex="1">
          <mxGeometry width="42" height="21" as="geometry">
            <mxRectangle width="42" height="21" as="alternateBounds" />
          </mxGeometry>
        </mxCell>
        <mxCell id="62" value="total_price" style="shape=partialRectangle;connectable=0;fillColor=none;top=0;left=0;bottom=0;right=0;align=left;spacingLeft=2;overflow=hidden;fontSize=11;" parent="60" vertex="1">
          <mxGeometry x="42" width="73" height="21" as="geometry">
            <mxRectangle width="73" height="21" as="alternateBounds" />
          </mxGeometry>
        </mxCell>
        <mxCell id="63" value="INVENTORY" style="shape=table;startSize=25;container=1;collapsible=0;childLayout=tableLayout;fixedRows=1;rowLines=1;fontStyle=1;align=center;resizeLast=1;" parent="1" vertex="1">
          <mxGeometry x="356" y="503" width="138" height="72" as="geometry" />
        </mxCell>
        <mxCell id="64" style="shape=tableRow;horizontal=0;startSize=0;swimlaneHead=0;swimlaneBody=0;fillColor=none;collapsible=0;dropTarget=0;points=[[0,0.5],[1,0.5]];portConstraint=eastwest;top=0;left=0;right=0;bottom=0;" parent="63" vertex="1">
          <mxGeometry y="25" width="138" height="26" as="geometry" />
        </mxCell>
        <mxCell id="65" value="int" style="shape=partialRectangle;connectable=0;fillColor=none;top=0;left=0;bottom=0;right=0;align=left;spacingLeft=2;overflow=hidden;fontSize=11;" parent="64" vertex="1">
          <mxGeometry width="36" height="26" as="geometry">
            <mxRectangle width="36" height="26" as="alternateBounds" />
          </mxGeometry>
        </mxCell>
        <mxCell id="66" value="product_id" style="shape=partialRectangle;connectable=0;fillColor=none;top=0;left=0;bottom=0;right=0;align=left;spacingLeft=2;overflow=hidden;fontSize=11;" parent="64" vertex="1">
          <mxGeometry x="36" width="102" height="26" as="geometry">
            <mxRectangle width="102" height="26" as="alternateBounds" />
          </mxGeometry>
        </mxCell>
        <mxCell id="67" style="shape=tableRow;horizontal=0;startSize=0;swimlaneHead=0;swimlaneBody=0;fillColor=none;collapsible=0;dropTarget=0;points=[[0,0.5],[1,0.5]];portConstraint=eastwest;top=0;left=0;right=0;bottom=0;" parent="63" vertex="1">
          <mxGeometry y="51" width="138" height="21" as="geometry" />
        </mxCell>
        <mxCell id="68" value="int" style="shape=partialRectangle;connectable=0;fillColor=none;top=0;left=0;bottom=0;right=0;align=left;spacingLeft=2;overflow=hidden;fontSize=11;" parent="67" vertex="1">
          <mxGeometry width="36" height="21" as="geometry">
            <mxRectangle width="36" height="21" as="alternateBounds" />
          </mxGeometry>
        </mxCell>
        <mxCell id="69" value="quantity_in_stock" style="shape=partialRectangle;connectable=0;fillColor=none;top=0;left=0;bottom=0;right=0;align=left;spacingLeft=2;overflow=hidden;fontSize=11;" parent="67" vertex="1">
          <mxGeometry x="36" width="102" height="21" as="geometry">
            <mxRectangle width="102" height="21" as="alternateBounds" />
          </mxGeometry>
        </mxCell>
        <mxCell id="70" value="places" style="curved=1;startArrow=ERmandOne;startSize=10;;endArrow=ERmandOne;endSize=10;;exitX=0.5;exitY=1;entryX=0.5;entryY=0;" parent="1" source="2" target="18" edge="1">
          <mxGeometry relative="1" as="geometry">
            <Array as="points" />
          </mxGeometry>
        </mxCell>
        <mxCell id="71" value="contains" style="curved=1;startArrow=ERmandOne;startSize=10;;endArrow=ERmany;endSize=10;;exitX=0.5;exitY=0.99;entryX=0.26;entryY=0;" parent="1" source="18" target="50" edge="1">
          <mxGeometry relative="1" as="geometry">
            <Array as="points">
              <mxPoint x="91" y="431" />
            </Array>
          </mxGeometry>
        </mxCell>
        <mxCell id="72" value="includes" style="curved=1;startArrow=ERmandOne;startSize=10;;endArrow=ERmany;endSize=10;;exitX=0.05;exitY=0.99;entryX=1;entryY=0.08;" parent="1" source="34" target="50" edge="1">
          <mxGeometry relative="1" as="geometry">
            <Array as="points">
              <mxPoint x="261" y="431" />
            </Array>
          </mxGeometry>
        </mxCell>
        <mxCell id="73" value="tracks" style="curved=1;startArrow=ERmandOne;startSize=10;;endArrow=ERmany;endSize=10;;exitX=0.67;exitY=0.99;entryX=0.46;entryY=0;" parent="1" source="34" target="63" edge="1">
          <mxGeometry relative="1" as="geometry">
            <Array as="points">
              <mxPoint x="419" y="431" />
            </Array>
          </mxGeometry>
        </mxCell>
      </root>
    </mxGraphModel>
  </diagram>
</mxfile>
